<?xml version="1.0" encoding="UTF-8"?>
<svg version="1.1" viewBox="0 0 52 52" xmlns="http://www.w3.org/2000/svg" xmlns:xlink="http://www.w3.org/1999/xlink">
    <!--Generated by IJSVG (https://github.com/curthard89/IJSVG)-->
    <g transform="translate(-124, -2162)">
        <g transform="translate(124, 2162)">
            <path fill="#4BC1D2" fill-rule="evenodd" stroke="none" stroke-width="1" d="M26,0c-14.336,0 -26,11.663 -26,26c0,14.337 11.664,26 26,26c14.336,0 26,-11.663 26,-26c0,-14.337 -11.664,-26 -26,-26v0Zm12.5,28h-10.5v11c0,1.104 -0.896,2 -2,2c-1.104,0 -2,-0.896 -2,-2v-11h-10.5c-1.104,0 -2,-0.896 -2,-2c0,-1.104 0.896,-2 2,-2h10.5v-10c0,-1.104 0.896,-2 2,-2c1.104,0 2,0.896 2,2v10h10.5c1.105,0 2,0.896 2,2c0,1.104 -0.895,2 -2,2v0Z"></path>
        </g>
    </g>
</svg>
