<?xml version="1.0" encoding="UTF-8" standalone="no"?>
<svg width="57px" height="53px" viewBox="0 0 57 53" version="1.1" xmlns="http://www.w3.org/2000/svg" xmlns:xlink="http://www.w3.org/1999/xlink">
    <!-- Generator: Sketch 40.1 (33804) - http://www.bohemiancoding.com/sketch -->
    <title>222 - Click Window (interaction, communication, interface, solid)</title>
    <desc>Created with Sketch.</desc>
    <defs></defs>
    <g id="Page-1" stroke="none" stroke-width="1" fill="none" fill-rule="evenodd">
        <g id="Icons" transform="translate(-1080.000000, -4424.000000)" fill="#4BC1D2">
            <g id="Click-Window" transform="translate(1080.000000, 4424.000000)">
                <path d="M56.707,50.85 L49.909,44.052 L56.394,40.811 L38.756,34.313 L45.254,51.949 L48.495,45.467 L55.293,52.264 C55.488,52.459 55.744,52.557 56,52.557 C56.256,52.557 56.512,52.459 56.707,52.264 C57.098,51.874 57.098,51.241 56.707,50.85 L56.707,50.85 Z M42.131,37.687 L51.364,41.09 L47.477,43.033 L45.533,46.92 L42.131,37.687 L42.131,37.687 Z" id="Fill-1291"></path>
                <path d="M1,16 L51,16 C51.552,16 52,15.553 52,15 L52,1 C52,0.447 51.552,0 51,0 L1,0 C0.448,0 0,0.447 0,1 L0,15 C0,15.553 0.448,16 1,16 L1,16 Z M26,4 C28.206,4 30,5.794 30,8 C30,10.206 28.206,12 26,12 C23.794,12 22,10.206 22,8 C22,5.794 23.794,4 26,4 L26,4 Z M17,4 C19.206,4 21,5.794 21,8 C21,10.206 19.206,12 17,12 C14.794,12 13,10.206 13,8 C13,5.794 14.794,4 17,4 L17,4 Z M8,4 C10.206,4 12,5.794 12,8 C12,10.206 10.206,12 8,12 C5.794,12 4,10.206 4,8 C4,5.794 5.794,4 8,4 L8,4 Z" id="Fill-1292"></path>
                <path d="M52,35.995 L52,19 C52,18.447 51.552,18 51,18 L1,18 C0.448,18 0,18.447 0,19 L0,50 C0,50.553 0.448,51 1,51 L41.707,51 L33.693,29.25 L52,35.995" id="Fill-1293"></path>
            </g>
        </g>
    </g>
</svg>
