<?xml version="1.0" encoding="UTF-8" standalone="no"?>
<svg width="60px" height="56px" viewBox="0 0 60 56" version="1.1" xmlns="http://www.w3.org/2000/svg" xmlns:xlink="http://www.w3.org/1999/xlink">
    <!-- Generator: Sketch 40.1 (33804) - http://www.bohemiancoding.com/sketch -->
    <title>54 - Chat Conversation (communication, dialogue, discussion, solid)</title>
    <desc>Created with Sketch.</desc>
    <defs></defs>
    <g id="Page-1" stroke="none" stroke-width="1" fill="none" fill-rule="evenodd">
        <g id="Icons" transform="translate(-840.000000, -840.000000)" fill="#4BC1D2">
            <g id="Chat-Conversation" transform="translate(840.000000, 840.000000)">
                <path d="M0,6 L0,39 C0,42.252 2.748,45 6,45 L14,45 L14,55 C14,55.413 14.254,55.784 14.639,55.933 C14.757,55.979 14.879,56 15,56 C15.276,56 15.546,55.886 15.74,55.673 L25.442,45 L54,45 C57.252,45 60,42.252 60,39 L60,6 C60,2.748 57.252,0 54,0 L6,0 C2.748,0 0,2.748 0,6 L0,6 Z M40,22 C40,19.794 41.794,18 44,18 C46.206,18 48,19.794 48,22 C48,24.206 46.206,26 44,26 C41.794,26 40,24.206 40,22 L40,22 Z M26,22 C26,19.794 27.794,18 30,18 C32.206,18 34,19.794 34,22 C34,24.206 32.206,26 30,26 C27.794,26 26,24.206 26,22 L26,22 Z M12,22 C12,19.794 13.794,18 16,18 C18.206,18 20,19.794 20,22 C20,24.206 18.206,26 16,26 C13.794,26 12,24.206 12,22 L12,22 Z" id="Fill-158"></path>
            </g>
        </g>
    </g>
</svg>
