<?xml version="1.0" encoding="UTF-8"?>
<svg version="1.1" viewBox="0 0 57 46" xmlns="http://www.w3.org/2000/svg" xmlns:xlink="http://www.w3.org/1999/xlink">
    <!--Generated by IJSVG (https://github.com/iconjar/IJSVG)-->
    <g transform="matrix(1,0,0,1,-481,-384)">
        <path fill="#999" fill-rule="evenodd" stroke="none" d="M39.7746,1.0001c-6.606,0.121 -11.775,5.791 -11.775,12.398v1.602c-11.75,-2.125 -17.625,-5.312 -24,-12c-3.813,7.375 0.354,13.625 5,17c-3.109,0 -5.66,-0.446 -7.665,-2.194c-0.151,-0.132 -0.389,0.004 -0.335,0.197c1.744,6.167 7.489,10.654 12,11.997c-4.072,0 -6.833,0.607 -9.685,-1.227c-0.165,-0.106 -0.377,0.054 -0.311,0.239c2.159,6.065 6.566,7.988 12.996,7.988c-3.197,2.352 -7.451,4.823 -15.591,4.993c-0.33,0.007 -0.49,0.419 -0.232,0.626c3.073,2.478 10.44,4.381 20.823,4.381c17.135,0 31,-15.207 31,-34v-1c2.666,-0.997 4.23,-3.383 4.992,-5.779c0.043,-0.133 -0.09,-0.257 -0.222,-0.212l-5.628,1.942c-0.128,0.044 -0.216,-0.119 -0.112,-0.204c2.356,-1.94 4.225,-4.327 4.963,-6.604c0.029,-0.088 -0.066,-0.168 -0.151,-0.132c-2.701,1.133 -5.274,2.198 -7.307,2.829c-0.339,0.106 -0.698,0.062 -1.008,-0.112c-1.334,-0.747 -5.197,-2.775 -7.752,-2.728" transform="matrix(1,0,0,1,481,383)"></path>
    </g>
</svg>
