<svg viewBox="0 0 48 34" xmlns="http://www.w3.org/2000/svg"><path d="m219.044 391.27-.0015-13.5822 12.969 6.8145-12.9675 6.76767zm28.476-15.9358s-.4695-3.33096-1.908-4.7978c-1.8255-1.92607-3.8715-1.93513-4.809-2.04692-6.717-.489448-16.7925-.489448-16.7925-.489448h-.021s-10.0755 0-16.7925.489448c-.939.111787-2.9835.120851-4.8105 2.04692-1.4385 1.46683-1.9065 4.7978-1.9065 4.7978s-.48 3.91256-.48 7.82361v3.66784c0 3.91256.48 7.82361.48 7.82361s.468 3.33096 1.9065 4.7978c1.827 1.92607 4.2255 1.86564 5.2935 2.06656 3.84.371617 16.32.486426 16.32.486426s10.086-.015106 16.803-.504554c.9375-.113298 2.9835-.122362 4.809-2.04843 1.4385-1.46683 1.908-4.7978 1.908-4.7978s.48-3.91105.48-7.82361v-3.66784c0-3.91105-.48-7.82361-.48-7.82361z" fill="#999" fill-rule="evenodd" transform="translate(-200 -368)"/></svg>
